<svg viewBox="0 0 198 198" xmlns="http://www.w3.org/2000/svg">
  <path d="M156.814,40.622l-0.966,0.193l-11.795,9.475l-0,3.674l-2.321,2.513l-0.58,0l-0.966,-0.773l-1.161,-0l-0.386,0.387l-0.194,0.773l1.354,1.934l-0,0.386l-2.32,2.321l-2.708,-1.354l-1.16,0.58l0,0.967l1.354,1.547l-0.194,0.58l-6.187,4.06l-4.254,2.127l-5.221,1.934l-2.9,0.58l-5.221,-0.193l-3.287,-1.16l-3.48,-3.481l-2.127,-2.707l-1.74,-3.094l-0.581,-1.933l0,-2.514l0.387,-1.16l1.934,-2.901l1.933,-1.74l8.702,-4.64l1.546,-1.547l0,-1.74l-0.386,-0.581l-0.58,0l-7.735,2.707l-1.74,0.387l-0.967,-0.193l0,-0.387l3.674,-3.48l1.16,0.193l-0.193,-1.16l0.58,-0.58l1.74,0.193l0,-1.16l1.16,-1.16l0.387,-0l0.967,1.16l0.387,-0.193l-0.194,-1.741l0.967,-0.386l0.193,-0.387l-1.353,-2.9l-1.354,-1.354l-1.547,-0.773l-1.933,-0l-1.934,0.773l-1.353,0.967l-3.481,0.967l-1.547,-0.194l-2.9,-1.16l-1.74,0.193l-2.321,1.741l-1.16,1.933l-3.093,1.934l-2.514,2.514l-1.16,1.74l-1.16,2.707l-0.581,3.287l0,2.32l0.581,4.061l1.74,5.801l1.74,7.541l0.193,4.64l-0.773,2.707l-5.027,6.961l-0.774,0.774l-0.387,-0l-6.187,-7.155l-0.58,-1.353l-0.194,-4.061l-0.773,-1.74l-0.387,-0.193l-0.386,0.386l-0.774,2.321l-0.58,0.58l-0.387,-0l-0.966,-0.967l-2.127,-3.287l-1.741,-1.547l-0.773,-0.193l0.387,1.74l1.547,2.514l0.58,1.546l-0.774,0.194l-2.9,-1.16l-1.934,0.193l1.16,1.353l3.868,2.127l-0.194,0.581l-1.933,0.193l-1.547,0.967l0.967,0.58l5.22,0.967l1.354,0.773l5.607,8.121l1.547,1.934l2.32,1.933l1.547,0l1.16,-0.58l6.768,-5.607l0.773,0.386l2.901,15.083l0.193,2.513l-4.64,7.348l-0.967,3.867l0.193,3.867l-2.9,2.514l-3.481,1.74l-3.48,0.967l-5.221,0.193l-3.094,-0.58l-3.287,-1.16l-3.48,-1.74l-5.028,-3.094l-11.408,-8.314l-6.381,-4.061l-6.574,-3.287l-7.348,-2.32l-3.673,-0.58l-7.735,0.193l-3.287,0.773l-2.514,0.967l-2.513,1.354l-1.934,1.547l6.381,-1.741l7.348,-0.193l4.447,0.773l5.607,1.934l5.028,2.707l5.607,4.061l3.481,3.093l9.281,9.282l5.221,4.64l4.834,3.287l4.06,1.934l4.447,1.353l4.061,0.58l6.187,-0.193l5.414,-1.16l1.934,-0.773l0.774,-0l0.193,0.58l-2.32,3.287l1.353,6.961l-14.502,15.275l-7.154,3.287l-5.221,1.934l-8.894,11.215l-17.789,20.882l-1.161,4.448l-4.06,21.463l-1.354,1.933l-18.562,21.463l-7.928,16.049l-0.387,0.193l0,2.514l197.807,-0l-0,-43.119l-1.16,-1.16l-3.674,-5.221l-4.641,-8.508l-2.127,-5.221l-3.48,-11.795l-2.9,-7.734l-1.934,-3.094l-2.514,-2.513l-4.64,-3.287l-4.254,-4.254l-11.022,-16.629l-7.734,-10.055l-2.127,-2.127l-7.348,-4.254l0.194,-0.58l1.74,0.387l-0,-1.16l-0.967,-0.967l-1.933,-0.774l-3.288,-0.193l-3.093,-0.773l-1.741,-0.967l-1.16,-1.16l0,-0.58l5.608,-10.635l0.966,-2.514l0.194,-2.513l-0.967,-2.321l-1.934,-1.933l-3.093,-2.127l-6.381,-3.674l0.193,-1.547l0.774,-2.127l2.707,-4.641l2.127,-2.127l4.834,-2.9l1.16,-1.16l-0,-0.967l-0.58,-0.58l-6.961,-0.193l-1.354,-0.387l-0.193,-0.967l14.695,-18.756l0.967,-0.967l1.353,-0.193l1.354,-0.773l1.934,-1.934l0.773,-1.547l-0.58,-1.547l2.9,-3.673l0.774,-0.581l2.32,-0.386l1.354,-0.58l1.74,-4.061l3.867,-6.187l-0.193,-1.161l-0.774,-1.546l-0.967,-0.967Zm-30.164,76.763l-0.193,2.321l-1.353,5.22l-2.514,5.608l-0,0.967l0.773,0.966l-0.193,0.774l-10.828,0.387l-3.287,0.386l-10.248,2.127l-3.868,1.354l-2.707,1.547l-0.773,-0.387l-0.387,-0.967l0.387,-0.967l2.127,-0.773l3.287,-1.74l1.934,-1.741l0.773,-1.933l0.387,-2.514l2.32,-1.16l5.608,-4.061l4.64,-5.027l3.674,0.58l4.254,0l3.674,-0.58l1.547,-0.58l0.966,0.193Zm1.741,-44.472l-0,0.386l-7.541,9.282l-0.58,-0l-2.514,-1.16l-1.74,-0l-1.547,0.966l-0.774,-0.193l-0.773,-1.547l0.193,-0.967l4.061,0.194l2.127,-0.58l3.867,-2.514l4.641,-4.061l0.58,0.194Zm-32.678,-36.739l0.773,0l0.774,0.774l0.386,0.773l0,0.967l-0.386,0.387l-0.774,-0l-0.773,-0.58l-0.387,-0.774l0,-0.966l0.387,-0.581Z" fill="#111" fill-rule="evenodd"/>
  <path d="M87.205,143.489l-0.387,0.773l-13.922,14.696l-6.574,3.093l-5.801,2.127l-13.535,16.629l-13.148,15.276l-1.354,4.447l-4.254,22.043l2.901,-5.414l9.088,-19.336l3.48,-2.9l5.608,-3.868l6.767,-9.861l7.541,-9.088l0.387,0.193l-0,0.774l-4.254,12.762l7.928,-12.375l6.187,-8.508l4.641,-5.801l11.215,-12.955l-1.934,-0.967l-0.58,-1.74Zm41.379,-7.928l-2.707,-1.16l-2.32,-1.74l-0,0.387l-0.967,0.193l-11.022,0.387l-13.728,2.707l-3.481,1.353l-2.127,1.354l-0.58,-0.194l1.354,1.741l2.32,0.773l3.094,-2.127l3.287,-1.547l9.281,-1.353l4.448,-1.161l2.513,0l5.221,0.774l3.48,-0l1.934,-0.387Zm-5.994,-32.871l-0,0.387l0.58,0.387l-0.58,-0.387l-0,-0.387Zm-117.949,0l-0.967,0.967l0.387,-0l-0.194,-0.193l0.774,-0.774Zm109.054,-20.689l0.387,0.386l0.387,-0.193l-0.387,0.193l-0.387,-0.386Zm22.623,-21.27l0.774,0.774l0.58,-0.387l-0.58,0.387l-0.774,-0.774Zm7.735,-7.928l-0,1.161l-0.967,0.966l0.967,-0.966l-0,-1.161Zm-37.512,-11.214l-0.193,0.966l0.193,-0.58l0.387,0l-0.387,-0.386Z" fill="#5a3d22"/>
</svg>