<?xml version="1.0" encoding="UTF-8" standalone="no"?><!DOCTYPE svg PUBLIC "-//W3C//DTD SVG 1.1//EN" "http://www.w3.org/Graphics/SVG/1.1/DTD/svg11.dtd"><svg width="100%" height="100%" viewBox="0 0 2975 1957" version="1.1" xmlns="http://www.w3.org/2000/svg" xmlns:xlink="http://www.w3.org/1999/xlink" xml:space="preserve" xmlns:serif="http://www.serif.com/" style="fill-rule:evenodd;clip-rule:evenodd;stroke-linecap:round;stroke-linejoin:round;stroke-miterlimit:1.5;"><g><path d="M1995.87,1.436c-11.15,2.787 -21.254,14.683 -31.946,15.975c-15.029,1.812 -25.162,-17.579 -41.666,-3.475c-10.675,9.125 -14.93,25.225 -23.609,36.112c-29.875,37.479 -84.671,48.754 -106.25,95.834c-16.837,36.737 -0.254,82.508 3.471,120.833c8.575,88.183 28.958,174.621 37.5,262.5c7.813,80.35 -7.662,121.196 -45.833,191.667c-6.8,12.55 -14.055,50.038 -26.388,56.946c-10.533,5.896 -25.754,-21.317 -31.946,-27.779c-31.004,-32.354 -58.9,-66.909 -88.887,-100c-8.634,-9.525 -28.846,-9.929 -34.03,-20.834c-11.416,-24.012 7.355,-63.496 -5.554,-91.666c-3.379,-7.367 -5.771,-26.43 -17.362,-24.305c-21.3,3.905 -13.067,61.805 -27.779,61.805c-23.263,-0 -33.167,-89.205 -67.359,-64.584c-20.712,14.913 10.6,59.275 18.75,72.917c1.221,2.05 12.234,19.65 9.721,20.833c-8.971,4.221 -43.175,-39.371 -53.471,-15.971c-11.304,25.684 42.034,63.517 57.638,78.471c19.737,18.917 52.083,29.959 68.054,50c45.788,57.459 81.138,168.796 148.613,203.471c60.516,31.1 96.429,-19.895 116.666,-70.137c7.042,-17.488 18.696,-57.917 45.138,-36.113c15.017,12.384 16.117,43.625 22.917,61.113c15.316,39.379 15.687,82.012 29.166,120.833c8.688,25.017 31.1,69.68 18.75,95.834c-24.912,52.758 -88.258,85.346 -106.25,141.667c-17.408,54.504 13.313,114.012 -2.775,166.666c-13.95,45.655 -62.008,83.659 -98.612,111.113c-161.838,121.375 -330.967,43.246 -479.167,-55.558c-189.771,-126.513 -381.655,-250.205 -604.168,-319.442c-61.337,-19.088 -140.475,-42.221 -208.333,-50c-36.796,-4.217 -78.617,-6.48 -116.667,-2.78c-97.925,9.521 -180,17.688 -266.667,69.446c-25.6,15.288 -89.246,53.388 -87.5,88.888c0.875,17.812 23.479,-0.358 29.167,-4.863c37.883,-29.991 82.5,-48.796 129.167,-61.108c188.341,-49.704 367.746,-25.092 550,38.192c190.979,66.312 352.205,218.062 508.334,341.667c113.904,90.175 229.975,190.279 383.333,190.279c74.517,-0 165.442,-18.633 233.334,-50.696c24.283,-11.467 49.971,-36.1 75,-43.75c18.167,-5.55 53.829,20.996 54.863,39.583c0.375,6.746 -11.58,11.625 -17.363,10.417c-17.508,-3.646 -36.658,-43.579 -57.637,-28.471c-14.23,10.242 -2.892,42.829 -13.892,56.25c-14.121,17.229 -49.717,3.459 -63.888,21.529c-17.687,22.55 -0.004,48.355 -11.804,70.138c-57.792,106.692 -92.237,164.258 -63.892,120.833c23.721,-36.337 62.513,-75.037 76.392,-116.666c7.958,-23.88 -0.258,-47.113 13.192,-68.75c7.612,-12.246 43.65,-5.884 54.862,-12.5c10.805,-6.375 8.996,-24.538 11.113,-35.417c0.987,-5.079 -0.046,-25 8.333,-25c5.375,-0 14.029,12.046 18.054,15.279c18.617,14.942 66.755,23.958 56.946,-15.279c-7.858,-31.438 -47.358,-50.417 -77.779,-40.279c-25.921,8.641 -49.967,31.929 -75,43.75c-67.738,31.987 -170.879,57.983 -245.834,50.696c-155.041,-15.075 -276.762,-135.217 -391.667,-227.78c-143.441,-115.546 -286.821,-223.992 -454.167,-300.692c-160.2,-73.425 -358.421,-88.062 -529.167,-54.862c-44.112,8.575 -89.008,20.891 -129.166,40.971c-4.167,2.083 -37.5,18.429 -37.5,17.362c-0,-5.108 17.162,-14.304 20.833,-17.362c21.429,-17.859 42.762,-32.25 66.667,-46.525c72.291,-43.175 144.241,-44.93 225,-52.78c45.229,-4.395 96.792,-6.987 141.667,1.388c212.379,39.629 398.571,120.425 583.333,233.333c181.18,110.721 388.626,325.03 620.834,234.726c38.684,-15.046 71.571,-36.696 104.167,-62.5c28.238,-22.359 62.767,-54.788 73.613,-90.28c16.341,-53.491 -14.53,-112.496 2.775,-166.666c17.945,-56.176 80.791,-89.296 106.25,-141.667c10.904,-22.429 0.983,-44.1 -2.775,-66.667c-9.455,-56.713 -24.084,-120.85 -45.142,-175c-6.113,-15.721 -7.229,-44.983 -19.442,-56.946c-11.183,-10.946 -40.471,-12.75 -51.391,-0.692c-26.859,29.659 -29.45,122.013 -88.888,114.584c-29.858,-3.734 -47.946,-30.709 -63.888,-52.779c-35.887,-49.688 -67.633,-124.488 -112.5,-165.28c-32.366,-29.421 -105.45,-57.429 -120.141,-104.166c0.52,1.662 52.279,33.17 58.333,18.75c9.683,-23.055 -54.104,-77.605 -36.804,-93.751c5.621,-5.245 42.5,61.034 54.166,64.584c36.188,11.017 14.909,-53.471 33.334,-53.471c4.85,-0 7.587,13.521 9.029,16.667c13.8,30.116 -6.025,59.241 4.167,87.5c3.945,10.95 26.758,14.704 35.416,25c31.142,37.046 65.275,71.446 96.525,108.333c12.196,14.392 31.142,39.509 45.834,12.5c31.629,-58.129 69.175,-120.429 75.696,-187.5c5.287,-54.392 -11.888,-118.079 -23.613,-170.833c-12.517,-56.338 -16.671,-113.755 -22.221,-170.834c-2.546,-26.192 -14.858,-61.604 -6.946,-87.5c14.413,-47.163 67.151,-69.267 102.78,-97.221c14.079,-11.046 18.154,-39.121 34.029,-46.529c9.546,-4.454 21.975,7.287 32.637,6.25c15.213,-1.479 24.88,-17.792 40.28,-18.054c25.087,-0.434 37.771,27.504 59.721,30.554c27.375,3.8 52.683,-20.258 79.166,-24.304c16.859,-2.575 48.979,0.25 54.863,20.137c11.425,38.638 -73.275,61.05 -62.5,90.971c4.633,12.875 113.742,-48.046 88.887,13.196c-6.875,16.946 -33.162,20.446 -47.916,26.387c-27.759,11.184 -55.405,27.351 -79.167,45.834c-32.475,25.258 -68.488,58.246 -81.946,98.612c-19.296,57.896 10.371,157.288 40.975,204.167c9.9,15.167 4.379,32.859 20.138,44.446c17.75,13.05 36.795,7.288 54.166,15.971c14.321,7.158 20.85,21.533 37.5,25.696c83.971,20.992 179.155,-25.346 254.167,-55.559c27.938,-11.25 92.825,-32.508 110.417,-56.941c16.171,-22.463 -28.492,-40.863 2.083,-62.5c24.404,-17.271 34.988,22.966 52.779,11.804c32.15,-20.175 30.305,-62.542 48.609,-89.584c10.762,-15.895 26.575,-2.487 40.279,-13.195c25.492,-19.913 -0.875,-48.459 13.888,-70.138c27.287,-40.054 94.779,-67.996 131.945,-100c8.746,-7.533 33.188,-34.517 45.834,-30.554c20.612,6.458 21.621,47.846 15.971,63.887c-5.771,16.392 -25.638,30.859 -35.417,45.834c-21.171,32.437 -31.267,69.525 -63.888,94.446c-14.42,11.016 -42.695,19.77 -52.083,35.416c-16.95,28.25 3.454,58.48 -27.083,86.805c-8.25,7.654 -22.146,17.112 -33.334,19.445c-8.433,1.755 -24.241,-8.116 -31.25,-0.695c-9.846,10.425 0.517,41.625 -11.804,55.554c-8.692,9.825 -22.617,0.379 -29.862,9.725c-9.338,12.037 -5.817,32.037 -15.28,45.137c-42.237,58.488 -84.954,116.825 -127.775,175c-14.804,20.109 -55.908,71.071 -54.862,95.834c2.354,55.742 125.9,-3.45 127.779,41.667c1.129,27.116 -56.112,52.075 -72.917,68.054c-35.183,33.454 -47.616,79.983 -64.583,123.612c-7.004,18.005 -20.05,42.621 -13.892,62.5c8.479,27.363 47.096,38.35 69.446,51.388c47.854,27.917 105.85,66.029 119.446,123.613c19.833,84.004 -99.167,161.829 -72.225,250c16.321,53.412 108.442,72.854 156.946,70.833c11.004,-0.458 40.479,-16.512 49.304,-10.416c12.725,8.783 -17.604,39.116 -9.721,50.695c5.425,7.967 14.492,1.688 20.834,4.859c11,5.5 16.5,11.3 32.5,14.446c13.837,2.725 13.221,1.208 28.475,5.137c22.925,5.904 17.029,4.683 33.75,13.471c13.329,7.008 10.633,3.742 20.412,10.558c19.617,13.667 31.659,23.954 45.28,36.25c107.545,97.088 146.558,137.334 20.833,0c-28.1,-30.696 -73.763,-61.791 -112.5,-74.304c-22.309,-7.208 -49.454,-5.937 -69.446,-18.75c-15.175,-9.729 23.458,-43.125 -1.388,-52.083c-22.216,-8.013 -45.295,9.725 -66.666,11.804c-39.696,3.858 -121.475,-28.342 -136.805,-66.667c-7.537,-18.846 5.738,-47.958 10.417,-66.667c16.804,-67.22 75.771,-117.804 58.333,-191.666c-13.666,-57.871 -74.15,-98.2 -123.612,-124.305c-18.942,-10 -60.85,-24.141 -63.888,-49.308c-1.629,-13.496 9.438,-30.733 13.888,-43.054c15.683,-43.429 31,-91.788 66.667,-123.613c21.62,-19.292 66.395,-36.096 70.833,-68.054c7.508,-54.071 -54.717,-31.967 -87.5,-33.333c-10.775,-0.45 -36.059,-6.059 -35.417,-20.834c0.479,-11.004 15.925,-24.162 21.529,-33.333c18.584,-30.413 37.413,-58.534 58.334,-87.5c31.891,-44.159 71.625,-91.15 99.304,-137.5c7.071,-11.838 4.242,-30.388 12.5,-40.971c6.783,-8.696 21.633,-3.584 29.862,-11.113c13.45,-12.308 3.821,-43.629 18.751,-54.166c13.5,-9.53 37.308,-4.592 53.47,-15.971c37.813,-26.629 14.013,-59.159 31.25,-90.279c9.65,-17.426 40.68,-26.992 56.25,-38.888c30.567,-23.35 39.855,-59.846 59.721,-90.279c14.455,-22.142 33.775,-36.188 38.892,-62.5c3.388,-17.421 2.488,-58.434 -15.279,-68.75c-19.788,-11.492 -39.646,6.929 -54.167,17.362c-28.875,20.742 -55.137,45.125 -83.333,66.667c-18.259,13.946 -47.504,24.237 -61.113,43.054c-15.8,21.854 8.046,52.325 -13.887,70.833c-12.521,10.567 -29.134,-1.962 -40.28,12.5c-18.687,24.255 -11.55,64.601 -44.441,81.946c-17.342,9.142 -38.379,-22.733 -63.892,2.775c-20.675,20.675 11.029,50.271 1.392,61.113c-21.1,23.737 -81.4,43.587 -111.113,55.554c-65.854,26.525 -155.329,74.017 -229.167,55.559c-16.65,-4.163 -23.179,-18.538 -37.5,-25.696c-17.316,-8.659 -36.279,-3.375 -54.166,-15.971c-18.717,-13.184 -11.73,-27.65 -21.53,-44.446c-25.979,-44.538 -62.066,-128.379 -43.75,-183.334c14.017,-42.041 52.309,-76.483 86.113,-102.779c23.762,-18.483 51.408,-34.65 79.167,-45.833c13.77,-5.546 35.745,-7.992 43.75,-22.221c12.379,-22.004 -4.659,-59.483 -31.25,-57.638c-4.1,0.284 -33.334,10.25 -33.334,11.805c0,-4.975 17.392,-17.025 20.834,-20.834c12.495,-13.841 26.229,-38.679 20.137,-58.333c-10.5,-33.888 -83.929,-22.671 -107.637,-11.804c-9.017,4.129 -22.45,15.371 -33.334,12.5c-26.533,-7.004 -41.975,-36.729 -75,-28.475Zm41.667,73.154c-13.904,4.558 -13.154,29.617 2.604,22.7c10.188,-4.475 12.033,-27.496 -2.604,-22.7Z" style="fill:#fff;fill-rule:nonzero;"/><path d="M2033.37,87.548l4.167,4.167l-4.167,-4.167Zm125.696,27.084c-3.783,2.208 -2.146,3.891 0.404,3.591c0.75,-0.087 1.579,-0.346 2.371,-0.812c4.729,-2.784 0.675,-4.792 -2.775,-2.779Zm-13.196,6.25l4.167,4.166l-4.167,-4.166Z" style="fill-rule:nonzero;"/><g><path d="M2272.88,1399.86c-10.36,-2.39 -20.63,-7.91 -30.8,-10.28c-11.88,-2.77 -23.02,-2.53 -30.74,-1.74c-5.6,0.58 -13.62,4.98 -15.59,6.49c-17.38,13.28 -36.85,23.7 -54.03,37.25c-7.54,5.94 -13.23,13.92 -19.78,20.95c-6.74,7.23 -47.83,52.09 -54.87,59.06c-7.24,7.18 -15.11,13.69 -22.76,20.43c-10.54,9.28 -28.08,20.18 -32.29,35.91c-7.62,28.52 10.04,56.08 17.69,82.11c6.75,22.98 4.63,49.83 27.3,63.15c4.17,2.46 9.43,4.88 14.48,4.7c16.97,-0.6 22.37,-4.39 32.92,-7.56c10.3,-3.1 21.07,-4.36 31.58,-6.68c41.51,-9.18 83.21,-16.89 125.71,-20c30.67,-2.24 30.58,-1.22 63.2,0.21c9.85,0.43 24.77,1.58 34.84,0.47c14.33,-1.59 33.89,-3.92 46.73,-12.54c19.31,-12.94 13.24,-41.5 10.98,-60.38c-0.72,-5.99 -1.71,-11.96 -1.97,-17.98c-0.51,-11.57 1.2,-20.68 3.13,-32.13c4.28,-25.38 16.91,-48.1 23.93,-72.77c2.63,-9.22 6.41,-28.06 7.16,-39.68c0.86,-13.4 -0.44,-13.28 0.63,-26.66c0.6,-7.51 3.97,-20.52 -1.2,-27.72c-2.33,-3.24 -9.39,-5.93 -12.47,-6.75c-2.15,-0.57 -4.42,-0.84 -6.63,-0.65c-12.55,1.08 -26.15,6.35 -37.82,10.72c-5.48,2.06 -10.55,5.41 -16.28,6.57c-35.3,7.18 -81.18,0.54 -103.05,-4.5Z" style="stroke:#fff;stroke-width:8.6px;"/></g><g><path d="M2429.98,634.262c-1.63,8.11 -14.66,31.27 -22.6,44.8c-7.44,12.7 -16.3,24.97 -25,36.41c-8.5,11.18 -19.96,25.29 -27.2,32.2c-4.49,4.28 -10.73,8.5 -16.2,9.2c-5.46,0.69 -11.89,-1.66 -16.6,-5c-6,-4.27 -12.23,-14.47 -19.4,-20.61c-7.23,-6.2 -17.1,-13.33 -24,-16.59c-5.32,-2.52 -11.59,-3.96 -17.4,-3c-6.9,1.13 -17.86,5.13 -24,9.8c-5.9,4.49 -10.16,11.29 -12.8,18.2c-2.63,6.89 -2.63,16.13 -3,23.2c-0.33,6.39 1.34,13.33 0.8,19.19c-0.49,5.48 -1.1,13.41 -4,16c-2.9,2.61 -9.8,2.25 -13.4,-0.39c-4.4,-3.24 -10.02,-11.93 -13,-19c-3.86,-9.2 -8.46,-26.54 -10.2,-36.2c-1.28,-7.16 -2.56,-15.94 -0.2,-21.8c2.37,-5.87 9.6,-10.27 14.4,-13.41c4.3,-2.8 9.43,-4.15 14.4,-5.39c5.87,-1.47 13.85,-2.41 20.8,-3.4c7.47,-1.07 15.97,-2.4 24,-3c8.84,-0.67 19.58,1.19 29,-1c11,-2.57 27.17,-9.77 37,-14.41c7.77,-3.65 14.71,-8.86 22,-13.39c8.3,-5.17 18.9,-12.8 27.8,-17.61c8.2,-4.42 17.94,-8.09 25.6,-11.19c6.71,-2.72 14.87,-6.81 20.4,-7.4c4.43,-0.48 13.68,-0.57 12.8,3.79Z" style="stroke:#000;stroke-width:8.6px;"/></g></g></svg>